<svg width="16" height="16" fill="none" xmlns="http://www.w3.org/2000/svg"><g clip-path="url('#clip0_3132_42')"><path d="M6.778 3.228c.506-.991 1.92-.991 2.426 0l.64 1.255c.199.388.57.658 1 .726l1.388.22c1.099.176 1.536 1.525.75 2.313l-.991.992c-.308.309-.45.746-.383 1.178l.22 1.386c.173 1.1-.972 1.934-1.963 1.43l-1.257-.64a1.36 1.36 0 0 0-1.233 0l-1.257.64c-.991.504-2.136-.33-1.962-1.43l.218-1.386a1.366 1.366 0 0 0-.382-1.178l-.99-.992c-.787-.788-.35-2.137.75-2.312l1.387-.22c.43-.07.801-.34 1-.727l.64-1.255Z" fill="#FFE550"/><path fill-rule="evenodd" clip-rule="evenodd" d="M8 16A8 8 0 1 0 8 0a8 8 0 0 0 0 16Zm0-.853A7.148 7.148 0 1 0 8 .853a7.148 7.148 0 1 0 0 14.294Z" fill="#BBF330"/></g><defs><clipPath id="clip0_3132_42"><path fill="#fff" d="M0 0h16v16H0z"/></clipPath></defs></svg>