<svg xmlns="http://www.w3.org/2000/svg" aria-hidden="true" style="width:0;height:0;position:absolute;overflow:hidden"><defs><symbol id="icon-star" viewBox="0 0 34 32"><path d="M15.421 1.037c.584-1.383 2.575-1.383 3.159 0l3.449 8.164a1.71 1.71 0 0 0 1.443 1.032l8.952.707c1.517.12 2.132 1.983.976 2.958l-6.821 5.752a1.67 1.67 0 0 0-.551 1.67l2.084 8.6c.353 1.457-1.257 2.609-2.556 1.828l-7.664-4.609a1.734 1.734 0 0 0-1.783 0l-7.664 4.609c-1.299.781-2.909-.371-2.556-1.828l2.084-8.6a1.67 1.67 0 0 0-.551-1.67L.601 13.898c-1.156-.975-.541-2.838.976-2.958l8.952-.707a1.71 1.71 0 0 0 1.443-1.032l3.449-8.164z" style="fill:var(--color1,#ffe550)"/></symbol><symbol id="icon-mobmenu" viewBox="0 0 43 32"><path d="M.592 3.556c0-1.146.929-2.075 2.075-2.075H40a2.075 2.075 0 1 1 0 4.15H2.667A2.075 2.075 0 0 1 .592 3.556zm0 12.51a2.075 2.075 0 0 1 2.075-2.073H40a2.076 2.076 0 0 1 .003 4.148H2.667a2.075 2.075 0 0 1-2.075-2.075zm2.075 10.437a2.076 2.076 0 0 0-.003 4.148H40l.061.001a2.075 2.075 0 1 0 0-4.15l-.064.001H40 2.667z"/></symbol><symbol id="icon-logo" viewBox="0 0 41 32"><path fill="#ffe550" d="M14.142 6.456c1.011-1.982 3.836-1.982 4.847 0l1.279 2.51a2.724 2.724 0 0 0 1.997 1.453l2.772.441c2.196.35 3.07 3.049 1.497 4.625l-1.978 1.983a2.733 2.733 0 0 0-.764 2.356l.437 2.773c.347 2.2-1.94 3.868-3.921 2.859l-2.51-1.278a2.718 2.718 0 0 0-2.465 0l-2.51 1.278c-1.981 1.009-4.267-.659-3.921-2.859l.437-2.773a2.734 2.734 0 0 0-.764-2.356l-1.978-1.983c-1.572-1.576-.699-4.276 1.497-4.625l2.772-.441a2.72 2.72 0 0 0 1.996-1.453l1.279-2.51z" style="fill:var(--color1,#ffe550)"/><path fill="#2c2c2c" d="m1.116 20.357-.021.005a31 31 0 0 1-.011.9c-.003.524-.004.868-.002 1.032 0 .157-.004.285-.01.384l.001.336a2.28 2.28 0 0 1-.019.296l-.018.206c-.014.13-.042.201-.084.211-.092.022-.235-.049-.431-.212-.197-.17-.31-.319-.341-.447s-.038-1.06-.024-2.798c.021-1.74-.025-2.884-.14-3.432a.421.421 0 0 1 .014-.273c.035-.165.219-.321.55-.467.338-.147.843-.3 1.514-.459.678-.161 1.216-.251 1.614-.27.405-.021.623.032.653.159.02.085-.026.159-.137.223s-.211.117-.298.16a22.45 22.45 0 0 1-.348.138c-.145.049-.279.096-.403.14-.125.037-.288.091-.488.16-.193.068-.371.133-.536.194-.166.054-.39.133-.671.237s-.463.169-.546.197c.012.02.023.051.033.093.079.333.122 1.13.129 2.392.443-.082.91-.204 1.402-.365.498-.163.804-.258.917-.284.268-.064.416-.039.443.075.052.22-.212.476-.791.77a8.607 8.607 0 0 1-1.95.697zm6.917-1.951a2.013 2.013 0 0 0-.277-.652c-.13-.201-.28-.334-.452-.398-.456.25-.786.728-.992 1.435-.2.698-.236 1.32-.107 1.865s.343.853.644.924c.485-.22.834-.668 1.047-1.347.218-.687.264-1.296.139-1.827zm-2.764.755c.117-.611.331-1.14.643-1.588.317-.456.684-.734 1.101-.833.424-.1.82-.003 1.187.291.366.287.61.689.733 1.206.12.51.121 1.063.001 1.66a3.784 3.784 0 0 1-.714 1.571c-.349.449-.767.731-1.254.847-.36.085-.7-.01-1.019-.286s-.538-.669-.659-1.179c-.122-.517-.128-1.08-.019-1.689zm7.564-1.892a2.013 2.013 0 0 0-.277-.652c-.13-.201-.28-.334-.452-.398-.456.25-.786.728-.992 1.435-.2.698-.236 1.32-.107 1.865s.343.853.644.924c.485-.22.834-.669 1.047-1.347.218-.687.264-1.296.139-1.827zm-2.763.756c.117-.611.331-1.14.643-1.588.317-.456.684-.734 1.101-.833.424-.1.82-.003 1.188.291.366.287.61.689.733 1.206.12.51.121 1.063.001 1.66a3.784 3.784 0 0 1-.714 1.571c-.349.449-.767.731-1.254.846-.36.085-.7-.01-1.019-.286s-.538-.669-.659-1.179c-.122-.517-.129-1.08-.019-1.689zm7.769-6.988c.113-.027.276.047.488.221.218.165.349.34.392.524s.079.729.107 1.635c.026.899.031 1.836.016 2.811-.02 2.188-.111 3.301-.273 3.34-.099.023-.223-.011-.371-.103-.143-.101-.226-.197-.247-.289s-.041-.282-.056-.57c-.525.872-1.045 1.369-1.561 1.491-.311.074-.627-.001-.948-.224-.314-.225-.507-.489-.579-.794-.104-.439-.11-.987-.019-1.644.096-.666.308-1.299.636-1.9s.742-.961 1.244-1.08.922.099 1.262.655c.005-1.586-.077-2.819-.248-3.699-.05-.212.002-.337.158-.374zm.068 5.491c-.09-.382-.234-.689-.43-.919-.189-.232-.375-.326-.559-.283-.304.072-.57.333-.799.784s-.381.943-.457 1.476c-.07.525-.063.965.021 1.319.03.127.1.219.211.275s.229.069.356.039c.275-.065.599-.351.972-.858.38-.509.612-1.057.696-1.645l.002-.135-.013-.053zm6.763-.636c.137.581-.009 1.131-.438 1.651-.431.513-.985.85-1.663 1.01-.671.159-1.266.117-1.786-.127-.522-.25-.819-.531-.893-.843-.05-.212-.012-.334.115-.364.113-.027.376.091.788.352.156.09.352.163.589.22.244.054.486.053.726-.004a2.374 2.374 0 0 0 1.223-.693c.328-.347.457-.669.387-.966-.045-.191-.23-.405-.555-.643s-.673-.45-1.046-.638c-.367-.197-.714-.418-1.04-.662s-.51-.455-.552-.632-.051-.373-.027-.588c.024-.215.067-.379.13-.491.203-.37.565-.751 1.084-1.143.526-.394.987-.637 1.382-.731.205-.049.394-.022.567.079s.277.226.312.375c.017.071-.044.145-.182.223s-.351.188-.638.33a5.188 5.188 0 0 0-.739.422c-.739.504-1.074.901-1.005 1.191.037.156.553.493 1.548 1.013a5.31 5.31 0 0 1 1.087.763c.347.299.555.598.625.895zm2.434.534c.032.135.125.183.281.147.268-.064.576-.215.922-.454.352-.248.549-.377.591-.387.127-.03.207.022.238.157.049.205-.107.493-.467.862-.353.368-.703.593-1.049.674-.339.08-.643.055-.913-.076-.271-.138-.43-.306-.477-.504s-.064-.46-.051-.784c.011-.332.035-.767.072-1.307.042-.548.069-1 .083-1.354-.314.156-.527.248-.64.275s-.239-.003-.379-.09c-.134-.095-.214-.196-.239-.302-.04-.17.38-.441 1.262-.815a7.73 7.73 0 0 0-.178-1.607c-.05-.212-.005-.335.137-.369.12-.028.287.014.5.128.212.107.34.256.385.447s.065.542.058 1.052c.394-.131.711-.225.952-.281.424-.1.657-.058.701.126.025.106-.071.222-.287.348-.209.124-.664.348-1.363.67-.016.594-.052 1.28-.107 2.055-.057.769-.067 1.231-.03 1.387zm4.735-5.562c.318-.075.649.018.995.28.344.255.547.514.608.776.06.255.034.538-.079.849.11.086.174.168.192.246.047.198.081.549.103 1.052.029.502.051.829.065.983a3.374 3.374 0 0 1 .05.638c.014.184-.029.287-.128.311-.127.03-.259-.055-.396-.254a3.224 3.224 0 0 1-.344-.838c-.44.949-.928 1.487-1.464 1.614-.325.077-.679.015-1.062-.186-.378-.21-.602-.463-.672-.761-.1-.425-.069-.986.095-1.682.162-.704.432-1.358.811-1.964s.787-.96 1.225-1.064zm.929 1.754c-.156-.659-.364-.957-.626-.895-.275.065-.55.34-.823.823-.275.476-.481.992-.619 1.548s-.171.979-.103 1.269a.37.37 0 0 0 .219.262.61.61 0 0 0 .375.024c.332-.079.654-.39.965-.935.31-.552.469-1.169.48-1.852-.004-.111.041-.189.135-.234l-.002-.011z" style="fill:var(--color4,#2c2c2c)"/><path fill="#bbf330" d="M30.759 19.973a.917.917 0 0 0-.642.602c-1.906 5.65-7.244 9.719-13.535 9.719a14.228 14.228 0 0 1-9.841-3.935.91.91 0 0 0-.845-.232c-.639.158-.88.934-.406 1.392a15.92 15.92 0 0 0 11.092 4.48c7.078 0 13.081-4.605 15.182-10.986.206-.626-.368-1.199-1.006-1.041zM1.867 14.15a.906.906 0 0 0 .665-.725c1.211-6.664 7.039-11.72 14.051-11.72 4.559 0 8.617 2.137 11.232 5.464a.901.901 0 0 0 .923.328c.584-.144.847-.825.478-1.301-2.924-3.771-7.495-6.198-12.633-6.198C8.702-.002 2.152 5.709.84 13.223c-.104.592.445 1.07 1.027.926zm38.748-8.819c-3.777 7.241-5.435 2.465-10.752 5.271.532-8.406 6.163-3.291 10.752-5.271z" style="fill:var(--color2,#bbf330)"/></symbol><symbol id="icon-touch" viewBox="0 0 32 32"><path d="M15.5 1.333c2.022 0 3.75.706 5.183 2.117s2.15 3.128 2.15 5.15c0 1.156-.25 2.244-.75 3.267s-1.206 1.889-2.117 2.6h-1.133V12.8c.644-.511 1.139-1.133 1.483-1.867s.517-1.511.517-2.333c0-1.467-.522-2.711-1.567-3.733s-2.3-1.533-3.767-1.533-2.722.511-3.767 1.533-1.567 2.267-1.567 3.733c0 .822.172 1.6.517 2.333s.839 1.356 1.483 1.867v2.4c-1.244-.645-2.222-1.556-2.933-2.733S8.165 10 8.165 8.6c0-2.022.717-3.739 2.15-5.15s3.161-2.117 5.183-2.117zm-1.266 28c-.378 0-.733-.072-1.067-.217s-.622-.339-.867-.583l-6.867-6.867L7.3 19.733c.311-.311.661-.55 1.05-.717s.794-.194 1.217-.083l2.6.6V8.666c0-.933.322-1.722.967-2.367s1.433-.967 2.367-.967c.933 0 1.722.322 2.367.967s.967 1.433.967 2.367v5.733h.867c.111 0 .211.022.3.067s.189.089.3.133l4.933 2.4c.533.244.928.639 1.183 1.183s.328 1.106.217 1.683l-1.2 7.267c-.111.645-.422 1.172-.933 1.583s-1.089.617-1.733.617h-8.533zm-.267-2h9.367l1.433-8.3-6.1-3.033h-1.833V8.667c0-.4-.122-.722-.367-.967s-.567-.367-.967-.367-.722.122-.967.367c-.245.244-.367.567-.367.967v13.3l-5.133-1.1-.767.767 5.7 5.7zm9.367 0z"/></symbol><symbol id="icon-rocket" viewBox="0 0 32 32"><path d="m7.233 13.633 3.533 1.5c.4-.8.828-1.589 1.283-2.367s.939-1.522 1.45-2.233L10.866 10l-3.633 3.633zm5.134 2.7 4.433 4.433c1.267-.578 2.456-1.233 3.567-1.967s2.011-1.444 2.7-2.133c1.8-1.8 3.122-3.644 3.967-5.533s1.3-4.022 1.367-6.4c-2.378.067-4.511.522-6.4 1.367s-3.733 2.167-5.533 3.967c-.689.689-1.4 1.589-2.133 2.7s-1.389 2.3-1.967 3.567zm7.633-3.2c-.444-.444-.667-.995-.667-1.65s.222-1.206.667-1.65.994-.667 1.65-.667c.656 0 1.206.222 1.65.667s.667.994.667 1.65c0 .655-.222 1.206-.667 1.65s-.994.667-1.65.667-1.206-.222-1.65-.667zM19.5 25.9l3.633-3.633-.533-2.633c-.711.511-1.456.994-2.233 1.45S18.8 21.967 18 22.367l1.5 3.533zM30.367 2.767c.2 3.022-.178 5.778-1.133 8.267s-2.533 4.833-4.733 7.033l-.133.133.733 3.667c.067.333.05.656-.05.967s-.272.589-.517.833l-5.7 5.733-2.833-6.6-5.667-5.667-6.6-2.833 5.733-5.7c.244-.244.522-.417.833-.517s.633-.117.967-.05l3.667.733c.022-.022.044-.039.067-.05s.044-.028.067-.05c2.2-2.2 4.544-3.783 7.033-4.75s5.244-1.35 8.267-1.15zm-24.4 18.4c.778-.778 1.728-1.172 2.85-1.183s2.072.372 2.85 1.15c.778.778 1.161 1.728 1.15 2.85s-.406 2.072-1.183 2.85c-.578.578-1.472 1.055-2.683 1.433s-3.028.733-5.45 1.067c.333-2.422.683-4.244 1.05-5.467s.839-2.122 1.417-2.7zm1.4 1.433c-.311.333-.589.856-.833 1.567s-.456 1.622-.633 2.733c1.111-.178 2.022-.389 2.733-.633s1.233-.522 1.567-.833c.422-.378.639-.85.65-1.417s-.183-1.061-.583-1.483c-.422-.4-.917-.595-1.483-.583s-1.039.228-1.417.65z"/></symbol><symbol id="icon-vector" viewBox="0 0 18 32"><path d="M17.653 15.035 2.792.875a1.334 1.334 0 0 0-1.84 0L.936.891a1.222 1.222 0 0 0-.282 1.373c.065.153.162.291.282.405l13.995 13.333L.936 29.33a1.212 1.212 0 0 0-.381.889 1.236 1.236 0 0 0 .381.889l.016.016a1.334 1.334 0 0 0 1.84 0l14.861-14.16a1.331 1.331 0 0 0 0-1.93z"/></symbol><symbol id="icon-facebook_logo" viewBox="0 0 32 32"><path d="M21.328 5.312h2.923V.224A36.478 36.478 0 0 0 20.144 0h-.157.008c-4.213 0-7.099 2.65-7.099 7.52V12H8.25v5.688h4.646V32h5.699V17.69h4.459l.709-5.688h-5.17V8.08c0-1.643.443-2.768 2.734-2.768z"/></symbol><symbol id="icon-instagram_logo" viewBox="0 0 32 32"><path d="M31.968 9.408c-.074-1.701-.349-2.869-.742-3.882a7.839 7.839 0 0 0-1.85-2.837l-.001-.001A7.906 7.906 0 0 0 26.597.861l-.054-.018C25.524.449 24.362.176 22.661.101 20.949.019 20.405 0 16.059 0c-4.344 0-4.888.019-6.595.094-1.699.074-2.869.349-3.88.742a7.847 7.847 0 0 0-2.839 1.85l-.001.001A7.9 7.9 0 0 0 .919 5.465l-.018.054C.506 6.538.232 7.7.157 9.401c-.082 1.712-.101 2.256-.101 6.602 0 4.344.019 4.888.094 6.595.075 1.701.35 2.869.744 3.882a7.915 7.915 0 0 0 1.849 2.837l.001.001c.8.813 1.77 1.443 2.832 1.843 1.019.395 2.182.67 3.882.744 1.707.075 2.251.094 6.595.094 4.346 0 4.89-.019 6.595-.094 1.701-.074 2.869-.349 3.882-.742a8.237 8.237 0 0 0 4.664-4.628l.019-.055c.394-1.019.669-2.182.744-3.882.075-1.707.093-2.251.093-6.595s-.006-4.888-.08-6.595zm-2.88 13.066c-.07 1.563-.333 2.406-.55 2.97a5.341 5.341 0 0 1-3.004 3.024l-.036.012c-.56.219-1.411.482-2.968.55-1.688.075-2.194.094-6.464.094-4.269 0-4.782-.019-6.464-.094-1.563-.069-2.406-.331-2.97-.55a4.953 4.953 0 0 1-1.836-1.192l-.001-.001a4.978 4.978 0 0 1-1.184-1.803L3.6 25.45c-.218-.563-.48-1.413-.549-2.97-.075-1.688-.094-2.195-.094-6.464 0-4.27.019-4.784.094-6.464.069-1.563.331-2.406.549-2.97a4.897 4.897 0 0 1 1.198-1.837l.002-.002a4.972 4.972 0 0 1 1.806-1.182l.034-.011c.56-.219 1.411-.48 2.968-.55 1.688-.074 2.195-.093 6.464-.093 4.275 0 4.782.019 6.464.093 1.563.069 2.406.331 2.97.55a4.91 4.91 0 0 1 1.837 1.194c.531.52.938 1.144 1.195 1.84.218.56.48 1.411.549 2.968.075 1.688.094 2.194.094 6.464 0 4.269-.019 4.768-.094 6.458z"/><path d="M16.059 7.782a8.223 8.223 0 0 0-8.219 8.221 8.223 8.223 0 0 0 16.442.008v-.009a8.223 8.223 0 0 0-8.221-8.221zm0 13.552a5.333 5.333 0 0 1 .001-10.666h.001a5.334 5.334 0 1 1 0 10.668zM26.525 7.458a1.92 1.92 0 0 1-3.84 0 1.92 1.92 0 0 1 3.84 0z"/></symbol><symbol id="icon-twitter_logo" viewBox="0 0 32 32"><path d="M32 6.078c-1.1.493-2.376.857-3.713 1.028l-.068.007a6.556 6.556 0 0 0 2.873-3.579l.013-.046a12.88 12.88 0 0 1-4.076 1.573l-.084.014A6.558 6.558 0 0 0 15.6 9.557v.004c0 .52.043 1.021.152 1.496-5.454-.266-10.28-2.88-13.522-6.861a6.524 6.524 0 0 0-.902 3.313v.001a6.57 6.57 0 0 0 2.914 5.451 6.453 6.453 0 0 1-2.994-.823l.033.017v.072a6.592 6.592 0 0 0 5.213 6.44l.043.008a6.403 6.403 0 0 1-1.662.215h-.061.003c-.419 0-.843-.024-1.242-.112.85 2.598 3.261 4.509 6.13 4.57a13.093 13.093 0 0 1-8.122 2.8H1.57h.001-.062c-.531 0-1.055-.034-1.569-.099l.061.006c2.826 1.846 6.287 2.944 10.004 2.944h.063-.003c12.072 0 18.672-10 18.672-18.669 0-.288-.01-.57-.024-.848a13.203 13.203 0 0 0 3.258-3.355l.03-.047z"/></symbol><symbol id="icon-tiktok-icon" viewBox="0 0 27 32"><path d="M19.98 0c.528 4.541 3.063 7.249 7.47 7.537v5.108c-2.554.25-4.791-.586-7.393-2.16v9.553c0 12.136-13.23 15.928-18.549 7.23-3.418-5.597-1.325-15.419 9.639-15.813v5.386c-.835.134-1.728.346-2.544.624-2.439.826-3.821 2.371-3.437 5.098.739 5.223 10.321 6.769 9.524-3.437V.01h5.29z"/></symbol><symbol id="icon-modal-close" viewBox="0 0 24 24"><path d="m13.178 12.046 4.004-4a.823.823 0 0 0-1.162-1.161l-4.003 3.96-4.029-4.026a.824.824 0 0 0-1.161 1.16l4.02 4.067-3.938 3.885a.823.823 0 1 0 1.162 1.161L12 13.166l3.905 3.901a.824.824 0 0 0 1.161-1.16l-3.888-3.86Z"/></symbol><symbol id="icon-eror" viewBox="0 0 32 32"><path fill="none" stroke="#ff705d" stroke-linecap="round" stroke-linejoin="round" stroke-width="2.286" d="M16 11.429v6.857m.002 8a1.143 1.143 0 1 0 0-2.287 1.143 1.143 0 0 0 0 2.287z" style="stroke:var(--color1,#ff705d)"/><path fill="none" stroke="#ff705d" stroke-linecap="round" stroke-linejoin="round" stroke-width="2.286" d="M18.036 2.4a2.286 2.286 0 0 0-4.068 0L1.397 27.543a2.281 2.281 0 0 0 .094 2.224 2.287 2.287 0 0 0 1.941 1.09h25.143a2.28 2.28 0 0 0 1.941-1.09 2.292 2.292 0 0 0 .093-2.224L18.038 2.4z" style="stroke:var(--color1,#ff705d)"/></symbol></defs></svg>