<svg width="28" height="28" fill="none" xmlns="http://www.w3.org/2000/svg"><path d="m4.233 11.633 3.534 1.5c.4-.8.827-1.588 1.283-2.366.456-.778.939-1.523 1.45-2.234L7.867 8l-3.634 3.633Zm5.134 2.7 4.433 4.434a26.195 26.195 0 0 0 3.567-1.967c1.11-.733 2.01-1.444 2.7-2.133 1.8-1.8 3.122-3.645 3.966-5.534.845-1.889 1.3-4.022 1.367-6.4-2.378.067-4.511.523-6.4 1.367-1.889.844-3.733 2.167-5.533 3.967-.69.689-1.4 1.589-2.134 2.7a26.202 26.202 0 0 0-1.966 3.566Zm7.633-3.2c-.444-.444-.667-.994-.667-1.65 0-.655.223-1.205.667-1.65.444-.444.994-.666 1.65-.666.656 0 1.206.222 1.65.666.444.445.667.995.667 1.65 0 .656-.223 1.206-.667 1.65-.444.445-.994.667-1.65.667-.656 0-1.206-.222-1.65-.667ZM16.5 23.9l3.633-3.633-.533-2.634c-.711.512-1.456.995-2.233 1.45A40.49 40.49 0 0 1 15 20.367l1.5 3.533ZM27.367.767c.2 3.022-.178 5.777-1.134 8.266-.955 2.49-2.533 4.834-4.733 7.034l-.067.066-.066.067.733 3.667c.067.333.05.655-.05.966-.1.312-.272.59-.517.834l-5.7 5.733L13 20.8l-5.667-5.667-6.6-2.833 5.734-5.7c.244-.244.522-.417.833-.517.311-.1.633-.116.967-.05l3.666.734a.263.263 0 0 1 .067-.05.263.263 0 0 0 .067-.05c2.2-2.2 4.544-3.784 7.033-4.75C21.589.95 24.344.567 27.367.767Zm-24.4 18.4c.777-.778 1.727-1.173 2.85-1.184 1.122-.01 2.072.373 2.85 1.15.777.778 1.16 1.728 1.15 2.85-.011 1.123-.406 2.073-1.184 2.85-.577.578-1.472 1.056-2.683 1.434-1.211.378-3.028.733-5.45 1.066.333-2.422.683-4.244 1.05-5.466.367-1.223.839-2.123 1.417-2.7Zm1.4 1.433c-.311.333-.59.856-.834 1.567-.244.71-.455 1.622-.633 2.733 1.111-.178 2.022-.389 2.733-.633.711-.245 1.234-.523 1.567-.834.422-.377.639-.85.65-1.416a2.026 2.026 0 0 0-.583-1.484 2.026 2.026 0 0 0-1.484-.583 1.875 1.875 0 0 0-1.416.65Z" fill="#7EB101"/></svg>