<svg width="22" height="29" fill="none" xmlns="http://www.w3.org/2000/svg"><path d="M10.5.333c2.023 0 3.75.706 5.184 2.117 1.433 1.411 2.15 3.128 2.15 5.15a7.34 7.34 0 0 1-.75 3.267 7.368 7.368 0 0 1-2.117 2.6h-1.133V11.8a5.149 5.149 0 0 0 1.483-1.867 5.42 5.42 0 0 0 .517-2.333c0-1.467-.523-2.711-1.567-3.733-1.044-1.023-2.3-1.534-3.767-1.534-1.466 0-2.722.511-3.766 1.534C5.689 4.889 5.167 6.133 5.167 7.6c0 .822.172 1.6.517 2.333A5.149 5.149 0 0 0 7.167 11.8v2.4a7.25 7.25 0 0 1-2.933-2.733A7.342 7.342 0 0 1 3.167 7.6c0-2.022.717-3.739 2.15-5.15C6.75 1.039 8.478.333 10.5.333Zm-1.266 28a2.66 2.66 0 0 1-1.067-.216 2.766 2.766 0 0 1-.867-.584L.434 20.667 2.3 18.733c.311-.31.661-.55 1.05-.716a1.827 1.827 0 0 1 1.217-.084l2.6.6V7.667c0-.934.322-1.723.967-2.367.644-.644 1.433-.967 2.366-.967.934 0 1.723.323 2.367.967.644.644.967 1.433.967 2.367V13.4h.866c.111 0 .211.022.3.067.09.044.19.088.3.133l4.934 2.4c.533.244.927.639 1.183 1.183.255.545.328 1.106.217 1.684l-1.2 7.266a2.518 2.518 0 0 1-.934 1.584 2.692 2.692 0 0 1-1.733.616H9.234Zm-.267-2h9.367l1.433-8.3-6.1-3.033h-1.833V7.667c0-.4-.123-.723-.367-.967-.245-.244-.567-.367-.967-.367s-.722.123-.966.367c-.245.244-.367.567-.367.967v13.3l-5.133-1.1-.767.766 5.7 5.7Zm9.367 0H8.967h9.367Z" fill="#7EB101"/></svg>