<svg width="16" height="16" viewBox="0 0 16 16" fill="none" xmlns="http://www.w3.org/2000/svg">
<g clip-path="url(#clip0_3132_42)">
<path d="M6.77845 3.2278C7.2843 2.23658 8.69845 2.23659 9.2043 3.22781L9.84467 4.48261C10.0428 4.87079 10.4141 5.14078 10.844 5.20915L12.2316 5.42984C13.3307 5.60464 13.7681 6.95431 12.9811 7.74239L11.9909 8.7338C11.6826 9.04252 11.5404 9.48039 11.6084 9.91171L11.8271 11.298C12.0006 12.3982 10.8562 13.2318 9.86474 12.7275L8.60822 12.0883C8.22056 11.8911 7.76219 11.8911 7.37453 12.0883L6.11801 12.7275C5.12659 13.2318 3.98212 12.3982 4.15564 11.298L4.3743 9.91171C4.44233 9.48039 4.30015 9.04252 3.99183 8.7338L3.00169 7.74239C2.21462 6.95431 2.65201 5.60464 3.75113 5.42984L5.13876 5.20915C5.56862 5.14078 5.93998 4.87079 6.13808 4.48261L6.77845 3.2278Z" fill="#FFE550"/>
<path fill-rule="evenodd" clip-rule="evenodd" d="M8 16C12.4183 16 16 12.4183 16 8C16 3.58172 12.4183 0 8 0C3.58172 0 0 3.58172 0 8C0 12.4183 3.58172 16 8 16ZM8 15.1472C11.9494 15.1472 15.1486 11.946 15.1486 8C15.1486 4.05402 11.9494 0.85278 8 0.85278C4.05061 0.85278 0.851382 4.05402 0.851382 8C0.851382 11.946 4.05061 15.1472 8 15.1472Z" fill="#BBF330"/>
</g>
<defs>
<clipPath id="clip0_3132_42">
<rect width="16" height="16" fill="white"/>
</clipPath>
</defs>
</svg>
